<?xml version="1.0" encoding="UTF-8"?>
<svg width="24px" height="24px" viewBox="0 0 24 24" version="1.1" xmlns="http://www.w3.org/2000/svg" xmlns:xlink="http://www.w3.org/1999/xlink">
    <title>logo</title>
    <g id="Symbols" stroke="none" stroke-width="1" fill="none" fill-rule="evenodd">
        <g id="logo" fill-rule="nonzero">
            <rect id="container" fill="#D8D8D8" opacity="0" x="0" y="0" width="24" height="24"></rect>
            <path d="M12.4357542,3.9 C13.6057875,3.9 14.5506042,4.13483145 15.2720073,4.59925049 C15.9964516,5.0656274 16.5257804,5.65191498 16.8612508,6.35703823 C17.1957383,7.06009536 17.3625698,7.77077165 17.3625698,8.48888889 C17.3625698,9.4083512 17.1523616,10.1711496 16.7361295,10.7787381 C16.5340068,11.0737837 16.2956286,11.3216593 16.0212887,11.5226074 C16.5928177,11.8759686 17.0091945,12.2318892 17.3277423,12.6871112 C17.8424914,13.4227152 18.1,14.2455016 18.1,15.1555556 C18.1,16.1278589 17.9191285,16.983055 17.5591649,17.7215909 C17.1964557,18.4657599 16.6449432,19.0487776 15.9042024,19.4702489 C15.2421271,19.8469607 14.426789,20.0556896 13.4573475,20.0936683 L13.1284916,20.1 L7.4,20.1 C6.98578642,20.1 6.61078643,19.9321068 6.33933982,19.6606602 C6.10182404,19.4231444 5.94359133,19.1063456 5.90774433,18.7533663 L5.9,18.6 L5.9,5.4 C5.9,4.98578642 6.06789322,4.61078643 6.33933982,4.33933982 C6.5768556,4.10182404 6.89365444,3.94359133 7.24663369,3.90774433 L7.4,3.9 L12.4357542,3.9 Z M12.8156425,13.1666667 L9.88379889,13.1666667 L9.77025526,13.1758285 C9.62243222,13.1999397 9.49016421,13.2703519 9.38882414,13.3716919 C9.26214905,13.498367 9.18379888,13.673367 9.18379888,13.8666667 L9.18379888,13.8666667 L9.18379888,16.3555555 L9.1929607,16.4690992 C9.21707195,16.6169222 9.28748407,16.7491902 9.38882414,16.8505303 C9.51549923,16.9772054 9.69049923,17.0555556 9.88379889,17.0555556 L9.88379889,17.0555556 L12.8156425,17.0555556 L13.0079422,17.0486744 C13.3225365,17.0257255 13.6075884,16.9453176 13.8628634,16.8065819 C14.1666935,16.6414577 14.4051759,16.4095905 14.5782898,16.1109593 C14.7525889,15.8102835 14.8385475,15.454546 14.8385475,15.0444444 C14.8385475,14.6842388 14.7646797,14.3626352 14.6154778,14.0800199 C14.4679988,13.8006681 14.2445769,13.5794558 13.9462303,13.4154042 C13.6425969,13.2484455 13.2654025,13.1666667 12.8156425,13.1666667 L12.8156425,13.1666667 Z M12.4872626,6.72 L9.98000001,6.72 C9.53817221,6.72 9.18,7.07817221 9.18,7.52000001 L9.18,9.34222221 C9.18,9.78405002 9.53817221,10.1422222 9.98000001,10.1422222 L12.4872626,10.1422222 C12.8299069,10.1422222 13.1353073,10.082963 13.4034637,9.96444444 C13.6716201,9.84592593 13.8839106,9.66259259 14.0403352,9.41444444 C14.1967598,9.1662963 14.2749721,8.84592593 14.2749721,8.45333333 C14.2749721,7.96444444 14.1222719,7.55333333 13.8168715,7.22 C13.5114711,6.88666667 13.0682682,6.72 12.4872626,6.72 Z" id="Shape" stroke="#FFFFFF" stroke-width="0.2" fill="#FFFFFF"></path>
        </g>
    </g>
</svg>