<svg width="104" height="19" viewBox="0 0 104 19" xmlns="http://www.w3.org/2000/svg" xmlns:xlink="http://www.w3.org/1999/xlink">
    <defs>
        <path id="5cgcmzfota" d="M0 0h21.265v18.571H0z"/>
    </defs>
    <g fill="none" fill-rule="evenodd">
        <path d="M48.89 13.463a4.178 4.178 0 1 1 0-8.357 4.178 4.178 0 0 1 0 8.357m0-12.102a7.92 7.92 0 0 0-7.92 7.923 7.917 7.917 0 0 0 7.92 7.92 7.92 7.92 0 0 0 7.923-7.92A7.923 7.923 0 0 0 48.89 1.36M78.876 13.463a4.179 4.179 0 1 1 0-8.357 4.176 4.176 0 0 1 4.175 4.178 4.176 4.176 0 0 1-4.175 4.179m0-12.102a7.923 7.923 0 0 0-7.924 7.923 7.92 7.92 0 0 0 7.924 7.92 7.923 7.923 0 0 0 0-15.843M63.88 1.854h-3.86v14.858h8.967v-3.444H63.88zM35.379 1.854l-4.68 6.167V1.857h-3.862v14.855H30.7v-6.165l4.679 6.164h4.82l-5.907-7.427 5.908-7.43zM100.14 1.854v8.499h-.04l-6.187-8.499H90.01v14.858h3.863V7.619h.04l6.623 9.093H104V1.854z" fill="#006CB5"/>
        <g>
            <mask id="763ydozp0b" fill="#fff">
                <use xlink:href="#5cgcmzfota"/>
            </mask>
            <path d="M3.857 1.49C3.433.745 4.032 0 4.721 0h11.761c.973 0 1.232.92.84 1.547L15.206 5.21c-.341.681-1.19.655-1.566.027l-2.046-3.565c-.566-.957-1.358-.977-1.941 0L7.643 5.14c-.28.526.159 1.303.868 1.303H20.27c.814 0 1.209.904.88 1.482l-5.828 10.091a1.086 1.086 0 0 1-1.884.011l-2.065-3.518c-.421-.749.152-1.619.84-1.619h4.385c.655 0 1.043-.683.667-1.344L15.339 8.16c-.504-.859-1.31-.906-1.84-.038 0 0-5.335 9.188-5.748 9.897-.412.71-1.248.766-1.7-.004L.155 7.96c-.463-.827.187-1.517.91-1.517h4.074c1.007 0 1.285.88.888 1.524L3.92 11.624c-.31.557.183 1.275.867 1.266h4.252c.65.01 1.075-.587.7-1.253L3.856 1.49z" fill="#CF2D26" mask="url(#763ydozp0b)"/>
        </g>
    </g>
</svg>
